<svg xmlns="http://www.w3.org/2000/svg" viewBox="0 0 400 280" font-family="sans-serif">
  <rect width="400" height="280" fill="#f6f8fc"/>
  <!-- nav -->
  <rect width="400" height="28" fill="#ffffff"/>
  <rect x="14" y="9" width="10" height="10" rx="3" fill="#1d4ed8"/>
  <rect x="30" y="12" width="52" height="5" rx="2.5" fill="#0f172a"/>
  <rect x="250" y="12" width="24" height="5" rx="2.5" fill="#94a3b8"/>
  <rect x="280" y="12" width="24" height="5" rx="2.5" fill="#94a3b8"/>
  <rect x="312" y="8" width="72" height="13" rx="6" fill="#1d4ed8"/>
  <!-- hero split -->
  <rect x="14" y="48" width="24" height="6" rx="3" fill="#1d4ed8" opacity=".25"/>
  <rect x="14" y="60" width="160" height="12" rx="4" fill="#0f172a"/>
  <rect x="14" y="76" width="130" height="12" rx="4" fill="#0f172a"/>
  <rect x="14" y="96" width="150" height="5" rx="2.5" fill="#94a3b8"/>
  <rect x="14" y="105" width="120" height="5" rx="2.5" fill="#94a3b8"/>
  <rect x="14" y="122" width="60" height="16" rx="6" fill="#1d4ed8"/>
  <rect x="80" y="122" width="60" height="16" rx="6" fill="none" stroke="#cbd5e1" stroke-width="1.5"/>
  <rect x="210" y="48" width="176" height="92" rx="10" fill="#dbeafe"/>
  <rect x="224" y="62" width="148" height="8" rx="4" fill="#93c5fd"/>
  <rect x="224" y="76" width="110" height="8" rx="4" fill="#93c5fd"/>
  <rect x="224" y="96" width="148" height="30" rx="6" fill="#bfdbfe"/>
  <!-- cifras band -->
  <rect x="0" y="156" width="400" height="36" fill="#1d4ed8"/>
  <g fill="#ffffff">
    <rect x="40" y="166" width="34" height="9" rx="3"/>
    <rect x="130" y="166" width="34" height="9" rx="3"/>
    <rect x="220" y="166" width="34" height="9" rx="3"/>
    <rect x="310" y="166" width="34" height="9" rx="3"/>
  </g>
  <!-- cards -->
  <g>
    <rect x="14" y="206" width="116" height="58" rx="8" fill="#ffffff" stroke="#e2e8f0"/>
    <rect x="24" y="216" width="40" height="8" rx="4" fill="#dbeafe"/>
    <rect x="24" y="232" width="80" height="5" rx="2.5" fill="#0f172a"/>
    <rect x="24" y="244" width="60" height="4" rx="2" fill="#94a3b8"/>
    <rect x="142" y="206" width="116" height="58" rx="8" fill="#ffffff" stroke="#e2e8f0"/>
    <rect x="152" y="216" width="40" height="8" rx="4" fill="#dbeafe"/>
    <rect x="152" y="232" width="80" height="5" rx="2.5" fill="#0f172a"/>
    <rect x="152" y="244" width="60" height="4" rx="2" fill="#94a3b8"/>
    <rect x="270" y="206" width="116" height="58" rx="8" fill="#ffffff" stroke="#e2e8f0"/>
    <rect x="280" y="216" width="40" height="8" rx="4" fill="#dbeafe"/>
    <rect x="280" y="232" width="80" height="5" rx="2.5" fill="#0f172a"/>
    <rect x="280" y="244" width="60" height="4" rx="2" fill="#94a3b8"/>
  </g>
</svg>
